<?xml version="1.0" encoding="utf-8"?>
<!-- Generator: Adobe Illustrator 23.1.0, SVG Export Plug-In . SVG Version: 6.00 Build 0)  -->
<svg version="1.1" id="Layer_1" xmlns="http://www.w3.org/2000/svg" xmlns:xlink="http://www.w3.org/1999/xlink" x="0px" y="0px"
	 viewBox="0 0 1080 1370" style="enable-background:new 0 0 1080 1370;" xml:space="preserve">
<style type="text/css">
	.st0{stroke:#000000;stroke-width:4.140393e-02;stroke-miterlimit:10;}
	.st1{stroke:#000000;stroke-width:4.285714e-02;stroke-miterlimit:10;}
	.st2{stroke:#000000;stroke-width:5.017769e-02;stroke-miterlimit:10;}
	.st3{stroke:#000000;stroke-width:5.309142e-02;stroke-miterlimit:10;}
	.st4{stroke:#000000;stroke-width:4.766253e-02;stroke-miterlimit:10;}
	.st5{fill:none;stroke:#000000;stroke-width:3.2;stroke-miterlimit:10;}
</style>
<ellipse class="st0" cx="802.4" cy="1120" rx="2.8" ry="3"/>
<ellipse class="st0" cx="802" cy="1120" rx="2.8" ry="3"/>
<ellipse class="st0" cx="941" cy="1244" rx="2.8" ry="3"/>
<circle class="st1" cx="934.6" cy="999.5" r="3"/>
<circle class="st1" cx="934.6" cy="999.5" r="3"/>
<circle class="st1" cx="935.5" cy="757" r="3"/>
<circle class="st1" cx="936.5" cy="514.5" r="3"/>
<ellipse class="st0" cx="540.6" cy="1118.6" rx="2.8" ry="3"/>
<circle class="st1" cx="671.8" cy="1240.6" r="3"/>
<ellipse class="st0" cx="540.2" cy="1118.6" rx="2.8" ry="3"/>
<circle class="st1" cx="542.7" cy="633.6" r="3"/>
<ellipse class="st2" cx="674.7" cy="513" rx="3.6" ry="3.4"/>
<ellipse class="st3" cx="280.9" cy="1117.1" rx="3.8" ry="3.6"/>
<circle class="st1" cx="282.8" cy="632.2" r="3"/>
<circle class="st1" cx="151" cy="505" r="3"/>
<circle class="st1" cx="150.1" cy="1237.7" r="3"/>
<circle class="st1" cx="151.1" cy="995.2" r="3"/>
<circle class="st1" cx="151.1" cy="995.2" r="3"/>
<circle class="st1" cx="152.1" cy="752.7" r="3"/>
<ellipse class="st0" cx="540.6" cy="1118.6" rx="2.8" ry="3"/>
<ellipse class="st4" cx="410" cy="1239.2" rx="3.4" ry="3.3"/>
<circle class="st1" cx="412.9" cy="511.6" r="3"/>
<polygon points="151.8,740.4 154,746.6 159.9,743.8 157.1,749.7 163.3,751.9 157.1,754.1 159.9,760 154,757.2 151.8,763.4 
	149.6,757.2 143.6,760 146.4,754.1 140.3,751.9 146.4,749.7 143.6,743.8 149.6,746.6 "/>
<polygon points="675.2,505.7 676.6,509.7 680.5,507.9 678.6,511.8 682.7,513.2 678.6,514.6 680.5,518.5 676.6,516.7 675.2,520.7 
	673.7,516.7 669.8,518.5 671.7,514.6 667.7,513.2 671.7,511.8 669.8,507.9 673.7,509.7 "/>
<polygon points="800.8,1106.9 803,1113.1 808.9,1110.3 806.1,1116.2 812.3,1118.4 806.1,1120.6 808.9,1126.5 803,1123.7 
	800.8,1129.9 798.6,1123.7 792.7,1126.5 795.5,1120.6 789.3,1118.4 795.5,1116.2 792.7,1110.3 798.6,1113.1 "/>
<line class="st5" x1="796.1" y1="634.8" x2="812.1" y2="634.8"/>
<line class="st5" x1="804.1" y1="626.8" x2="804.1" y2="642.8"/>
<line class="st5" x1="401.8" y1="1239" x2="417.8" y2="1239"/>
<line class="st5" x1="409.8" y1="1231" x2="409.8" y2="1247"/>
</svg>
