<?xml version="1.0" encoding="utf-8"?>
<!-- Generator: Adobe Illustrator 23.1.0, SVG Export Plug-In . SVG Version: 6.00 Build 0)  -->
<svg version="1.1" id="Layer_1" xmlns="http://www.w3.org/2000/svg" xmlns:xlink="http://www.w3.org/1999/xlink" x="0px" y="0px"
	 viewBox="0 0 1080 1370" style="enable-background:new 0 0 1080 1370;" xml:space="preserve">
<style type="text/css">
	.st0{stroke:#000000;stroke-width:4.140393e-02;stroke-miterlimit:10;}
	.st1{stroke:#000000;stroke-width:4.285714e-02;stroke-miterlimit:10;}
	.st2{stroke:#000000;stroke-width:5.017769e-02;stroke-miterlimit:10;}
	.st3{stroke:#000000;stroke-width:5.309142e-02;stroke-miterlimit:10;}
	.st4{stroke:#000000;stroke-width:4.766253e-02;stroke-miterlimit:10;}
	.st5{fill:none;stroke:#000000;stroke-width:3.2;stroke-miterlimit:10;}
</style>
<ellipse class="st0" cx="782.4" cy="1110" rx="2.8" ry="3"/>
<ellipse class="st0" cx="782" cy="1110" rx="2.8" ry="3"/>
<ellipse class="st0" cx="941" cy="1234" rx="2.8" ry="3"/>
<circle class="st1" cx="964.6" cy="1009.5" r="3"/>
<circle class="st1" cx="964.6" cy="1009.5" r="3"/>
<circle class="st1" cx="965.5" cy="787" r="3"/>
<circle class="st1" cx="936.5" cy="564.5" r="3"/>
<ellipse class="st0" cx="540.6" cy="1148.6" rx="2.8" ry="3"/>
<circle class="st1" cx="671.8" cy="1300.6" r="3"/>
<ellipse class="st0" cx="540.2" cy="1148.6" rx="2.8" ry="3"/>
<circle class="st1" cx="542.7" cy="643.6" r="3"/>
<ellipse class="st2" cx="674.7" cy="493" rx="3.6" ry="3.4"/>
<ellipse class="st3" cx="300.9" cy="1107.1" rx="3.8" ry="3.6"/>
<circle class="st1" cx="302.8" cy="682.2" r="3"/>
<circle class="st1" cx="151" cy="555" r="3"/>
<circle class="st1" cx="150.1" cy="1227.7" r="3"/>
<circle class="st1" cx="121.1" cy="1005.2" r="3"/>
<circle class="st1" cx="121.1" cy="1005.2" r="3"/>
<circle class="st1" cx="122.1" cy="782.7" r="3"/>
<ellipse class="st0" cx="540.6" cy="1148.6" rx="2.8" ry="3"/>
<ellipse class="st4" cx="410" cy="1299.2" rx="3.4" ry="3.3"/>
<circle class="st1" cx="412.9" cy="491.6" r="3"/>
<polygon points="121.8,770.4 124,776.6 129.9,773.8 127.1,779.7 133.3,781.9 127.1,784.1 129.9,790 124,787.2 121.8,793.4 
	119.6,787.2 113.6,790 116.4,784.1 110.3,781.9 116.4,779.7 113.6,773.8 119.6,776.6 "/>
<polygon points="675.2,485.7 676.6,489.7 680.5,487.9 678.6,491.8 682.7,493.2 678.6,494.6 680.5,498.5 676.6,496.7 675.2,500.7 
	673.7,496.7 669.8,498.5 671.7,494.6 667.7,493.2 671.7,491.8 669.8,487.9 673.7,489.7 "/>
<polygon points="780.8,1096.9 783,1103.1 788.9,1100.3 786.1,1106.2 792.3,1108.4 786.1,1110.6 788.9,1116.5 783,1113.7 
	780.8,1119.9 778.6,1113.7 772.7,1116.5 775.5,1110.6 769.3,1108.4 775.5,1106.2 772.7,1100.3 778.6,1103.1 "/>
<line class="st5" x1="776.1" y1="684.8" x2="792.1" y2="684.8"/>
<line class="st5" x1="784.1" y1="676.8" x2="784.1" y2="692.8"/>
<line class="st5" x1="401.8" y1="1299" x2="417.8" y2="1299"/>
<line class="st5" x1="409.8" y1="1291" x2="409.8" y2="1307"/>
</svg>
